<svg preserveAspectRatio="none" overflow="visible" style="display: block;" width="32.25" height="30.7519" viewBox="0 0 32.25 30.7519" fill="none" xmlns="http://www.w3.org/2000/svg">
<g id="Person Column - empty">
<path id="Person" d="M15.1448 0.000977791C11.6738 -0.00273133 8.30889 1.19745 5.6237 3.39694C2.9385 5.59644 1.09921 8.6591 0.419338 12.0629C-0.260536 15.4667 0.261088 19.0009 1.8953 22.0632C3.52951 25.1254 6.17515 27.5262 9.38127 28.8561C12.5874 30.1861 16.1555 30.3631 19.4775 29.3568C22.7994 28.3505 25.6696 26.2232 27.5987 23.3377C29.5279 20.4521 30.3965 16.9868 30.0567 13.5324C29.7169 10.0781 28.1896 6.84848 25.7352 4.39414C24.3463 3.00046 22.6957 1.8949 20.8783 1.14099C19.0609 0.387072 17.1124 -0.000349257 15.1448 0.000977791V0.000977791ZM15.1448 1.42741C17.8031 1.42551 20.4032 2.20605 22.6209 3.67171C24.8387 5.13737 26.576 7.22334 27.6164 9.66961C28.6567 12.1159 28.9541 14.8142 28.4715 17.4284C27.9888 20.0425 26.7474 22.4567 24.9021 24.3702C24.8646 24.2982 24.8257 24.2293 24.7837 24.1619C24.7417 24.0945 24.7013 24.0255 24.6623 23.9566L24.5664 23.7858C24.5335 23.7289 24.502 23.6734 24.4676 23.618C24.3397 23.4092 24.2078 23.2049 24.072 23.0052C23.9361 22.8054 23.7938 22.6126 23.645 22.4268C23.6195 22.3953 23.594 22.3654 23.5685 22.3369L23.4906 22.247C23.3578 22.0862 23.2209 21.9304 23.0801 21.7795C22.9392 21.6287 22.7954 21.4823 22.6486 21.3405L22.5212 21.2161L22.3923 21.0948C22.2195 20.9379 22.0422 20.7881 21.8604 20.6453C21.6786 20.5024 21.4928 20.3641 21.303 20.2302C21.2731 20.2092 21.2401 20.1898 21.2086 20.1703L21.1142 20.1119C20.9444 20 20.7716 19.8936 20.5958 19.7927C20.42 19.6918 20.2412 19.5954 20.0594 19.5035L19.9096 19.4271L19.7597 19.3522C19.5634 19.2608 19.3642 19.1739 19.1604 19.093C18.9566 19.0121 18.7543 18.9431 18.5461 18.8697C18.5955 18.8413 18.642 18.8098 18.6869 18.7783C18.7319 18.7469 18.7783 18.7139 18.8263 18.6839L18.9476 18.6045L19.0675 18.5236C19.2263 18.4112 19.3821 18.2959 19.532 18.173C19.6818 18.0501 19.8317 17.9213 19.9635 17.7849L19.989 17.7579L20.0145 17.7295C20.1433 17.5991 20.2647 17.4628 20.38 17.3204C20.4954 17.1781 20.6063 17.0327 20.7127 16.8829L20.7966 16.763L20.8775 16.6417C20.9839 16.4783 21.0843 16.3105 21.1772 16.1397C21.272 15.9679 21.358 15.7914 21.4349 15.6108V15.5913V15.5718C21.5083 15.3965 21.5727 15.2152 21.6282 15.0324C21.6836 14.8496 21.7331 14.6623 21.778 14.4736C21.79 14.4241 21.8005 14.3747 21.811 14.3237C21.8215 14.2728 21.8305 14.2248 21.8394 14.1739C21.8754 13.9746 21.9069 13.7723 21.9293 13.5745C21.9519 13.3685 21.9634 13.1615 21.9638 12.9542C21.9638 11.1429 21.2443 9.40583 19.9635 8.12505C18.6827 6.84427 16.9456 6.12474 15.1343 6.12474C13.323 6.12474 11.5859 6.84427 10.3051 8.12505C9.02437 9.40583 8.30483 11.1429 8.30483 12.9542C8.30524 13.1615 8.31675 13.3685 8.3393 13.5745C8.36177 13.7783 8.39174 13.9806 8.4292 14.1739C8.43819 14.2248 8.44868 14.2743 8.45767 14.3237C8.46666 14.3732 8.47864 14.4226 8.49063 14.4736C8.53408 14.6623 8.58353 14.8496 8.64046 15.0324C8.6974 15.2152 8.76033 15.3965 8.83375 15.5718V15.5913V15.6108C8.91065 15.7914 8.99667 15.9679 9.09147 16.1397C9.18586 16.3105 9.28775 16.4783 9.39114 16.6417L9.47205 16.763L9.55596 16.8829C9.66234 17.0327 9.77172 17.1826 9.88859 17.3189C10.0055 17.4553 10.1253 17.5961 10.2542 17.7265L10.2797 17.7549L10.3051 17.7834C10.443 17.9198 10.5868 18.0486 10.7367 18.1715C10.8865 18.2944 11.0363 18.4097 11.2011 18.5221L11.321 18.603L11.4424 18.6824C11.4903 18.7124 11.5353 18.7454 11.5817 18.7768C11.6282 18.8083 11.6746 18.8398 11.7226 18.8682C11.5143 18.9356 11.309 19.0106 11.1068 19.0915C10.9045 19.1724 10.7067 19.2593 10.5074 19.3507L10.3576 19.4241L10.2077 19.5005C10.0249 19.5924 9.84464 19.6893 9.66683 19.7912C9.48903 19.8931 9.31472 20.0005 9.14391 20.1134L9.05251 20.1703C9.02254 20.1883 8.99108 20.2077 8.96261 20.2272C8.77182 20.3591 8.58552 20.4984 8.40372 20.6453C8.22192 20.7921 8.04412 20.9419 7.87031 21.0948L7.74445 21.2116L7.65305 21.3375C7.50322 21.4823 7.35688 21.6322 7.21403 21.787C7.07119 21.9418 6.93234 22.1002 6.79749 22.262C6.77352 22.2905 6.74954 22.3174 6.72557 22.3444C6.7016 22.3714 6.67762 22.3983 6.65365 22.4283C6.50481 22.6161 6.36197 22.8099 6.22512 23.0097C6.08827 23.2094 5.95542 23.4147 5.82656 23.6255C5.7936 23.6794 5.76213 23.7349 5.73067 23.7903L5.63627 23.9566C5.59581 24.027 5.55536 24.096 5.51341 24.1649C5.47145 24.2338 5.43249 24.3042 5.39504 24.3762C4.19172 23.1257 3.23818 21.657 2.58563 20.0489C1.75713 17.9926 1.4456 15.7645 1.67834 13.5599C1.91109 11.3552 2.68099 9.24126 3.9206 7.40329C5.1602 5.56533 6.83167 4.05944 8.78852 3.01759C10.7454 1.97574 12.9279 1.42973 15.1448 1.42741V1.42741ZM15.1448 18.3468C13.8932 18.3479 12.6798 17.915 11.7117 17.1217C10.7435 16.3284 10.0804 15.2239 9.83542 13.9965C9.59043 12.769 9.77871 11.4946 10.3682 10.3904C10.9576 9.28626 11.9117 8.42069 13.0679 7.94125C14.2241 7.46181 15.5108 7.39818 16.7087 7.7612C17.9065 8.12423 18.9414 8.89144 19.6369 9.93206C20.3324 10.9727 20.6455 12.2223 20.5228 13.4679C20.4002 14.7136 19.8493 15.8781 18.9641 16.763C18.4633 17.2658 17.8681 17.6647 17.2126 17.9368C16.5572 18.2088 15.8545 18.3487 15.1448 18.3483V18.3468ZM6.49483 25.401C6.53378 25.3191 6.57324 25.2377 6.6132 25.1568C6.65315 25.0759 6.69411 24.9965 6.73606 24.9186C6.7885 24.8197 6.84244 24.7193 6.89638 24.6189C6.95032 24.5185 7.00576 24.4226 7.0627 24.3297C7.11964 24.2368 7.21254 24.108 7.27996 24.0001C7.34739 23.8922 7.4298 23.7873 7.50771 23.6824L7.695 23.4232C7.75794 23.3378 7.82236 23.2524 7.88829 23.1715C7.95422 23.0906 8.05761 22.9752 8.14601 22.8808C8.23441 22.7864 8.32431 22.695 8.41421 22.6036L8.62698 22.3819C8.6974 22.3084 8.77681 22.232 8.84574 22.1676C8.91466 22.1032 9.04052 21.9998 9.14541 21.9204C9.25029 21.8409 9.34918 21.7705 9.44508 21.6866L9.67882 21.5038C9.75674 21.4424 9.82866 21.384 9.91706 21.3285C10.0249 21.2566 10.1373 21.1892 10.2512 21.1262C10.3651 21.0633 10.4789 21.0004 10.5928 20.9374C10.6767 20.891 10.7591 20.843 10.8415 20.7951C10.924 20.7472 11.0079 20.7022 11.0948 20.6602C11.2176 20.6018 11.3435 20.5509 11.4723 20.5104C11.6012 20.47 11.7286 20.416 11.8574 20.3696C11.9428 20.3381 12.0267 20.3036 12.1106 20.2707C12.1946 20.2377 12.28 20.2062 12.3669 20.1793C12.5167 20.1358 12.6665 20.0999 12.8164 20.0684C12.9662 20.0369 13.116 20.007 13.2659 19.9785C13.3423 19.9635 13.4157 19.944 13.4921 19.9276C13.5685 19.9111 13.642 19.8931 13.7214 19.8811C13.9531 19.8481 14.1874 19.8227 14.4241 19.8047C14.6608 19.7867 14.9011 19.7782 15.1448 19.7792C15.3865 19.7792 15.6263 19.7882 15.864 19.8062C16.1018 19.8242 16.336 19.8496 16.5667 19.8826C16.6432 19.8931 16.7166 19.9096 16.79 19.9276C16.8634 19.9455 16.9398 19.9635 17.0118 19.9785C17.1616 20.0085 17.3114 20.0369 17.4702 20.0699C17.6291 20.1029 17.7699 20.1388 17.9198 20.1823C18.0052 20.2077 18.0891 20.2392 18.1715 20.2722C18.2539 20.3051 18.3363 20.3381 18.4202 20.3696C18.5506 20.4175 18.6809 20.4625 18.8098 20.5119C18.9386 20.5614 19.066 20.6123 19.1904 20.6707C19.2758 20.7112 19.3597 20.7576 19.4421 20.8041C19.5245 20.8505 19.6069 20.9 19.6893 20.9449C19.8032 21.0079 19.9186 21.0693 20.0324 21.1337C20.1463 21.1982 20.2587 21.2641 20.3681 21.3375C20.4505 21.3914 20.5284 21.4514 20.6063 21.5128L20.84 21.6956C20.9419 21.7735 21.0438 21.8454 21.1397 21.9294C21.2356 22.0133 21.3405 22.0897 21.4394 22.1766C21.5383 22.2635 21.5892 22.3174 21.6581 22.3908L21.8709 22.6126C21.9608 22.704 22.0507 22.7969 22.1376 22.8898C22.2245 22.9827 22.3129 23.0786 22.3953 23.179C22.4777 23.2794 22.5257 23.3438 22.5886 23.4292L22.7759 23.6869C22.8523 23.7933 22.9257 23.8982 23.0052 24.0061C23.0846 24.1139 23.155 24.2233 23.2239 24.3372C23.2928 24.4511 23.3348 24.5245 23.3872 24.6204C23.4397 24.7163 23.4906 24.8137 23.5371 24.9111C23.5835 25.0085 23.6225 25.0729 23.6644 25.1553C23.7064 25.2377 23.7468 25.3216 23.7858 25.4055C22.5795 26.4104 21.2082 27.1987 19.7328 27.7355C16.7631 28.8147 13.5085 28.8147 10.5389 27.7355C9.06627 27.1965 7.69806 26.4067 6.49483 25.401V25.401Z" fill="#C5C7D0"/>
<g id=".Badges">
<circle id="Ellipse 4501" cx="24.75" cy="23.2519" r="7.125" fill="#6161FF" stroke="white" stroke-width="0.75"/>
<g id="Icon / Platform / Show">
<g id="Union">
<path fill-rule="evenodd" clip-rule="evenodd" d="M25.9365 23.2512C25.9365 23.862 25.4407 24.3571 24.8291 24.3571C24.2175 24.3571 23.7217 23.862 23.7217 23.2512C23.7217 22.6404 24.2175 22.1453 24.8291 22.1453C25.4407 22.1453 25.9365 22.6404 25.9365 23.2512ZM25.2165 23.2512C25.2165 23.4634 25.044 23.6371 24.8291 23.6371C24.6143 23.6371 24.4417 23.4634 24.4417 23.2512C24.4417 23.0389 24.6143 22.8653 24.8291 22.8653C25.044 22.8653 25.2165 23.0389 25.2165 23.2512Z" fill="white"/>
<path fill-rule="evenodd" clip-rule="evenodd" d="M26.8056 21.2539C26.204 20.8782 25.5165 20.6138 24.8149 20.6252C24.1134 20.6138 23.4259 20.8782 22.8244 21.254C22.2185 21.6324 21.6755 22.1388 21.2574 22.6487L21.2564 22.6499C21.1662 22.7609 21.0079 22.979 21.0079 23.2507C21.0079 23.5223 21.1662 23.7405 21.2564 23.8515L21.2573 23.8526C21.6662 24.3515 22.2036 24.8581 22.8089 25.2396C23.4099 25.6184 24.1022 25.8887 24.8149 25.8772C25.5277 25.8887 26.22 25.6184 26.8212 25.2396C27.4266 24.8582 27.9642 24.3516 28.3734 23.8527L28.3837 23.84C28.4218 23.7934 28.4821 23.7194 28.5318 23.6375C28.5852 23.5494 28.6504 23.4146 28.6504 23.2507C28.6504 23.0868 28.5852 22.9519 28.5318 22.8638C28.4821 22.782 28.4218 22.708 28.3837 22.6614L28.3743 22.6499L28.3733 22.6486C27.9548 22.1387 27.4115 21.6324 26.8056 21.2539ZM21.7428 23.211C21.7582 23.1801 21.7825 23.1443 21.8147 23.1046C22.1908 22.646 22.6763 22.1954 23.2058 21.8646C23.7381 21.5321 24.2905 21.3355 24.8082 21.3452C24.8127 21.3453 24.8172 21.3453 24.8217 21.3452C25.3393 21.3355 25.8918 21.5321 26.4242 21.8646C26.9538 22.1954 27.4396 22.6461 27.8162 23.1048C27.8624 23.1615 27.8933 23.1996 27.9161 23.2372C27.9193 23.2424 27.9218 23.2468 27.9239 23.2507C27.9218 23.2545 27.9193 23.259 27.9161 23.2642C27.8933 23.3017 27.8624 23.3398 27.8162 23.3966C27.4478 23.8457 26.9668 24.2969 26.4374 24.6304C25.9054 24.9656 25.349 25.167 24.8216 25.1572C24.8172 25.1571 24.8127 25.1571 24.8082 25.1572C24.2809 25.167 23.7245 24.9656 23.1927 24.6305C22.6635 24.2969 22.1828 23.8459 21.8147 23.3968C21.7825 23.3571 21.7582 23.3212 21.7428 23.2904C21.7308 23.2663 21.7284 23.2536 21.728 23.2507C21.7284 23.2477 21.7308 23.235 21.7428 23.211Z" fill="white"/>
</g>
</g>
</g>
</g>
</svg>
